<svg width="30" height="30" viewBox="0 0 30 30" fill="none" xmlns="http://www.w3.org/2000/svg">
<path d="M11.6927 26.25C12.5741 27.028 13.7319 27.5 15 27.5C16.2681 27.5 17.4259 27.028 18.3073 26.25M22.5 10C22.5 8.01088 21.7098 6.10322 20.3033 4.6967C18.8968 3.29018 16.9891 2.5 15 2.5C13.0109 2.5 11.1032 3.29018 9.69669 4.6967C8.29017 6.10322 7.49999 8.01088 7.49999 10C7.49999 13.8627 6.52558 16.5074 5.43707 18.2568C4.5189 19.7323 4.05982 20.4701 4.07665 20.6759C4.09529 20.9038 4.14357 20.9907 4.32721 21.127C4.49307 21.25 5.24073 21.25 6.73606 21.25H23.2639C24.7593 21.25 25.5069 21.25 25.6728 21.127C25.8564 20.9907 25.9047 20.9038 25.9233 20.6759C25.9402 20.4701 25.4811 19.7323 24.5629 18.2568C23.4744 16.5074 22.5 13.8627 22.5 10Z" stroke="#060818" stroke-width="2" stroke-linecap="round" stroke-linejoin="round"/>
</svg>
