<svg width="30" height="30" viewBox="0 0 30 30" fill="none" xmlns="http://www.w3.org/2000/svg">
<path d="M15 26.25C21.2136 26.25 26.25 21.2124 26.25 15C26.25 8.78635 21.2136 3.75 15 3.75C8.78635 3.75 3.75 8.78635 3.75 15C3.75 21.2124 8.78635 26.25 15 26.25Z" stroke="#667085" stroke-width="1.5" stroke-linecap="round" stroke-linejoin="round"/>
<path fill-rule="evenodd" clip-rule="evenodd" d="M20.0421 14.9994C20.0421 17.7845 17.7836 20.0419 14.9985 20.0419C12.2134 20.0419 9.95605 17.7845 9.95605 14.9994C9.95605 12.2143 12.2134 9.95697 14.9985 9.95697C17.7836 9.95697 20.0421 12.2143 20.0421 14.9994Z" stroke="#667085" stroke-width="1.5" stroke-linecap="round" stroke-linejoin="round"/>
<path d="M7.2424 22.7594L11.1221 18.8797M22.7594 22.7594L18.8796 18.8797M11.1209 11.1209L7.24121 7.24243M18.8796 11.1209L22.7594 7.24243" stroke="#667085" stroke-width="1.5" stroke-linecap="round" stroke-linejoin="round"/>
</svg>
