<svg width="30" height="30" viewBox="0 0 30 30" fill="none" xmlns="http://www.w3.org/2000/svg">
<path d="M24.711 22.0886C24.6992 24.1493 23.0191 25.8109 20.9571 25.7992H7.94217C5.88022 25.8097 4.20124 24.1459 4.19189 22.0851V12.6743C4.20007 11.8641 4.58421 11.1052 5.22988 10.6183L12.3066 4.93917C13.5547 3.95257 15.3177 3.95257 16.5659 4.93917L23.6718 10.6124C24.3151 11.1005 24.6981 11.8571 24.711 12.6639V22.0886Z" stroke="#4361EE" stroke-width="1.44" stroke-linecap="round" stroke-linejoin="round"/>
<path d="M10.3992 20.9693V21.0195" stroke="#4361EE" stroke-width="1.44" stroke-linecap="round" stroke-linejoin="round"/>
<path d="M10.3992 16.853C12.7016 16.853 14.5675 18.7188 14.5675 21.0213" stroke="#4361EE" stroke-width="1.44" stroke-linecap="round" stroke-linejoin="round"/>
<path d="M10.3992 12.7078C14.9902 12.7078 18.7112 16.43 18.7112 21.0198" stroke="#4361EE" stroke-width="1.44" stroke-linecap="round" stroke-linejoin="round"/>
</svg>
