<svg width="30" height="30" viewBox="0 0 30 30" fill="none" xmlns="http://www.w3.org/2000/svg">
<path d="M6.45005 3.07455C0.278681 8.63399 6.2749 9.49321 9.55776 8.36541C10.9328 7.89303 11.2238 7.87896 13.6448 6.52444L15.3753 5.48263L17.9086 3.9576C20.324 2.68538 22.4687 3.08425 24.5877 4.28687C25.149 4.60542 25.5321 4.82669 25.7854 5.17168C22.2972 0.23139 12.5881 -2.45492 6.45005 3.07455Z" fill="#0B1D6F"/>
<path d="M24.5877 4.28687C22.4687 3.08425 20.324 2.68538 17.9086 3.9576L15.3753 5.48263C16.8727 6.75568 17.8365 7.37017 19.9631 8.14088C20.3798 8.2919 23.3332 8.96253 24.8455 8.14088C26.3578 7.31924 26.5164 6.27176 25.8414 5.25194C25.8229 5.22512 25.8042 5.19837 25.7854 5.17168C25.5321 4.82669 25.149 4.60542 24.5877 4.28687Z" fill="#C4DEFB"/>
<path d="M8.7843 29.0626C16.6078 31.7141 14.3419 26.0074 11.7393 23.6821C10.6493 22.7082 10.4918 22.4592 8.12696 21.0058L6.37385 20.0037L3.80759 18.5368C1.51567 17.0471 0.783259 14.9602 0.748603 12.494C0.739423 11.8407 0.736445 11.3929 0.903828 10.9976C-1.5622 16.5376 1.00302 26.4253 8.7843 29.0626Z" fill="#0B1D6F"/>
<path d="M0.748603 12.494C0.783259 14.9602 1.51567 17.0471 3.80759 18.5368L6.37385 20.0037C6.71006 18.0493 6.75181 16.8939 6.34532 14.637C6.26567 14.1947 5.36048 11.2602 3.90413 10.3401C2.44779 9.42004 1.47582 9.80419 0.944233 10.9082C0.930618 10.9378 0.917149 10.9676 0.903828 10.9976C0.736445 11.3929 0.739423 11.8407 0.748603 12.494Z" fill="#C4DEFB"/>
<path d="M29.7607 14.0161C28.1086 5.80515 24.3782 10.6526 23.6979 14.1057C23.413 15.552 23.2795 15.8151 23.2233 18.623L23.2458 20.6669L23.2789 23.6589C23.1553 26.4208 21.7431 28.1088 19.6587 29.3724C19.1066 29.7071 18.7264 29.9336 18.3058 29.984C24.2601 29.3843 31.4038 22.1828 29.7607 14.0161Z" fill="#0B1D6F"/>
<path d="M19.6587 29.3724C21.7431 28.1088 23.1553 26.4208 23.2789 23.6589L23.2458 20.6669C21.4123 21.3482 20.4067 21.8892 18.6866 23.3754C18.3495 23.6666 16.3013 25.9305 16.2454 27.6722C16.1895 29.414 17.0028 30.0773 18.2094 29.9931C18.2415 29.9903 18.2737 29.9872 18.3058 29.984C18.7264 29.9336 19.1066 29.7071 19.6587 29.3724Z" fill="#C4DEFB"/>
<circle cx="15" cy="15" r="6" fill="#0B1D6F"/>
</svg>
