<svg width="31" height="30" viewBox="0 0 31 30" fill="none" xmlns="http://www.w3.org/2000/svg">
<path d="M10.2275 3.75H20.7704C24.4554 3.75 26.7491 6.35139 26.7491 10.0327V19.9664C26.7491 23.6477 24.4554 26.2491 20.7693 26.2491H10.2275C6.54248 26.2491 4.25 23.6477 4.25 19.9664V10.0327C4.25 6.35139 6.55343 3.75 10.2275 3.75Z" stroke="#667085" stroke-width="1.5" stroke-linecap="round" stroke-linejoin="round"/>
<path d="M11.4521 10.2637V25.9096M4.31836 10.2637H26.7372" stroke="#667085" stroke-width="1.5" stroke-linecap="round" stroke-linejoin="round"/>
<path d="M15.7685 17.2629C15.7685 19.6441 18.5804 21.9196 19.1155 21.9196C19.6505 21.9196 22.4624 19.6441 22.4624 17.2629C22.4624 15.4144 20.964 13.916 19.1155 13.916C17.2669 13.916 15.7685 15.4144 15.7685 17.2629Z" stroke="#667085" stroke-width="1.5" stroke-linecap="round" stroke-linejoin="round"/>
<path d="M19.1158 17.244V17.2315" stroke="#667085" stroke-width="1.5" stroke-linecap="round" stroke-linejoin="round"/>
</svg>
