<svg width="31" height="30" viewBox="0 0 31 30" fill="none" xmlns="http://www.w3.org/2000/svg">
<path d="M10.4398 3.74179H20.5614C24.0991 3.74179 26.3 6.23922 26.3 9.77462V19.3102C26.3 22.8455 24.0991 25.3418 20.5603 25.3418H10.4398C6.90205 25.3418 4.70001 22.8455 4.70001 19.3102V9.77462C4.70001 6.23922 6.91255 3.74179 10.4398 3.74179Z" stroke="#667085" stroke-width="1.44" stroke-linecap="round" stroke-linejoin="round"/>
<path fill-rule="evenodd" clip-rule="evenodd" d="M11.9474 20.2038C11.1453 20.2038 10.4949 19.5535 10.4949 18.7514V13.8756C10.4949 13.0735 11.1453 12.4231 11.9474 12.4231C12.7495 12.4231 13.3999 13.0735 13.3999 13.8756V18.7514C13.3999 19.5535 12.7495 20.2038 11.9474 20.2038Z" stroke="#667085" stroke-width="1.44" stroke-linecap="round" stroke-linejoin="round"/>
<path fill-rule="evenodd" clip-rule="evenodd" d="M19.0543 20.2035C18.2521 20.2035 17.6018 19.5531 17.6018 18.7511V10.3364C17.6018 9.53431 18.2521 8.88397 19.0543 8.88397C19.8564 8.88397 20.5068 9.53431 20.5068 10.3364V18.7511C20.5068 19.5531 19.8564 20.2035 19.0543 20.2035Z" stroke="#667085" stroke-width="1.44" stroke-linecap="round" stroke-linejoin="round"/>
</svg>
