<svg width="30" height="30" viewBox="0 0 30 30" fill="none" xmlns="http://www.w3.org/2000/svg">
<path fill-rule="evenodd" clip-rule="evenodd" d="M17.9041 7.85701H12.0957C11.1593 7.85701 10.4004 7.09811 10.4004 6.16166V5.44534C10.4004 4.50889 11.1593 3.75 12.0957 3.75H17.9041C18.8406 3.75 19.5995 4.50889 19.5995 5.44534V6.16166C19.5995 7.09811 18.8406 7.85701 17.9041 7.85701Z" stroke="#667085" stroke-width="1.5" stroke-linecap="round" stroke-linejoin="round"/>
<path d="M19.6004 5.74219C22.192 5.74219 24.2935 7.84373 24.2935 10.4354V21.5573C24.2935 24.1489 22.192 26.2505 19.6004 26.2505H10.4012C7.80955 26.2505 5.70801 24.1489 5.70801 21.5573V10.4354C5.70801 7.84373 7.80955 5.74219 10.4012 5.74219" stroke="#667085" stroke-width="1.5" stroke-linecap="round" stroke-linejoin="round"/>
<path d="M10.0391 19.5438L10.9913 20.496L12.8447 18.6426" stroke="#667085" stroke-width="1.5" stroke-linecap="round" stroke-linejoin="round"/>
<path d="M10.0391 13.4843L10.9913 14.4365L12.8447 12.583" stroke="#667085" stroke-width="1.5" stroke-linecap="round" stroke-linejoin="round"/>
<path d="M16.1011 20.3614H19.96" stroke="#667085" stroke-width="1.5" stroke-linecap="round" stroke-linejoin="round"/>
<path d="M16.1011 14.3018H19.96" stroke="#667085" stroke-width="1.5" stroke-linecap="round" stroke-linejoin="round"/>
</svg>
